<svg width="26" height="28" viewBox="0 0 26 28" fill="none" xmlns="http://www.w3.org/2000/svg">
<path d="M26 12.5018H21.7576V18.5145H18.9091V20.7172H17.5152V23.8526H8.46465V20.7172H7.09091V18.5145H4.24242V13.2162H7.09091V11.0135H8.46465V9.66407H10.6869L10.8687 13.3551L14.5657 13.1963L14.4848 11.2714L17.4949 11.1325L17.4545 10.1403L19.9192 10.0213L19.8384 7.89794L22.303 7.77888L22.1616 4.72289L19.697 4.82211L19.596 2.79802L17.1313 2.89724L17.0909 1.90503L14.0606 2.0241L13.9798 0L10.2626 0.158753L10.4646 4.46492H7.83838V5.81432H4.24242V8.01701H2.84848V12.5018H0V19.9631H2.84848V23.7137H4.24242V25.9164H6.34343V28H19.0707V25.9164H21.7576V23.7137H23.1515V19.9631H26V12.5018Z" fill="black"/>
</svg>
